<?xml version="1.0" encoding="UTF-8" standalone="no"?>
<svg
   xmlns:dc="http://purl.org/dc/elements/1.1/"
   xmlns:cc="http://creativecommons.org/ns#"
   xmlns:rdf="http://www.w3.org/1999/02/22-rdf-syntax-ns#"
   xmlns:svg="http://www.w3.org/2000/svg"
   xmlns="http://www.w3.org/2000/svg"
   xmlns:xlink="http://www.w3.org/1999/xlink"
   xmlns:sodipodi="http://sodipodi.sourceforge.net/DTD/sodipodi-0.dtd"
   xmlns:inkscape="http://www.inkscape.org/namespaces/inkscape"
   width="328"
   height="328"
   viewBox="0 0 328 328"
   version="1.1"
   id="svg1059"
   sodipodi:docname="beer_club_qr_md.svg"
   inkscape:version="0.92.3 (2405546, 2018-03-11)">
  <metadata
     id="metadata1063">
    <rdf:RDF>
      <cc:Work
         rdf:about="">
        <dc:format>image/svg+xml</dc:format>
        <dc:type
           rdf:resource="http://purl.org/dc/dcmitype/StillImage" />
        <dc:title></dc:title>
      </cc:Work>
    </rdf:RDF>
  </metadata>
  <sodipodi:namedview
     pagecolor="#ffffff"
     bordercolor="#666666"
     borderopacity="1"
     objecttolerance="10"
     gridtolerance="10"
     guidetolerance="10"
     inkscape:pageopacity="0"
     inkscape:pageshadow="2"
     inkscape:window-width="3440"
     inkscape:window-height="1387"
     id="namedview1061"
     showgrid="false"
     inkscape:zoom="2.0350878"
     inkscape:cx="-332.09914"
     inkscape:cy="101.93537"
     inkscape:window-x="1912"
     inkscape:window-y="-8"
     inkscape:window-maximized="1"
     inkscape:current-layer="svg1059" />
  <rect
     x="0"
     y="0"
     width="328"
     height="328"
     fill="#ffffff"
     id="rect2" />
  <defs
     id="defs5">
    <rect
       id="p"
       width="8"
       height="8" />
  </defs>
  <g
     fill="#000000"
     id="g1055">
    <use
       xlink:href="#p"
       x="32"
       y="32"
       id="use7" />
    <use
       xlink:href="#p"
       x="32"
       y="40"
       id="use9" />
    <use
       xlink:href="#p"
       x="32"
       y="48"
       id="use11" />
    <use
       xlink:href="#p"
       x="32"
       y="56"
       id="use13" />
    <use
       xlink:href="#p"
       x="32"
       y="64"
       id="use15" />
    <use
       xlink:href="#p"
       x="32"
       y="72"
       id="use17" />
    <use
       xlink:href="#p"
       x="32"
       y="80"
       id="use19" />
    <use
       xlink:href="#p"
       x="32"
       y="112"
       id="use21" />
    <use
       xlink:href="#p"
       x="32"
       y="144"
       id="use23" />
    <use
       xlink:href="#p"
       x="32"
       y="152"
       id="use25" />
    <use
       xlink:href="#p"
       x="32"
       y="160"
       id="use27" />
    <use
       xlink:href="#p"
       x="32"
       y="168"
       id="use29" />
    <use
       xlink:href="#p"
       x="32"
       y="176"
       id="use31" />
    <use
       xlink:href="#p"
       x="32"
       y="240"
       id="use33" />
    <use
       xlink:href="#p"
       x="32"
       y="248"
       id="use35" />
    <use
       xlink:href="#p"
       x="32"
       y="256"
       id="use37" />
    <use
       xlink:href="#p"
       x="32"
       y="264"
       id="use39" />
    <use
       xlink:href="#p"
       x="32"
       y="272"
       id="use41" />
    <use
       xlink:href="#p"
       x="32"
       y="280"
       id="use43" />
    <use
       xlink:href="#p"
       x="32"
       y="288"
       id="use45" />
    <use
       xlink:href="#p"
       x="40"
       y="32"
       id="use47" />
    <use
       xlink:href="#p"
       x="40"
       y="80"
       id="use49" />
    <use
       xlink:href="#p"
       x="40"
       y="120"
       id="use51" />
    <use
       xlink:href="#p"
       x="40"
       y="128"
       id="use53" />
    <use
       xlink:href="#p"
       x="40"
       y="136"
       id="use55" />
    <use
       xlink:href="#p"
       x="40"
       y="144"
       id="use57" />
    <use
       xlink:href="#p"
       x="40"
       y="152"
       id="use59" />
    <use
       xlink:href="#p"
       x="40"
       y="160"
       id="use61" />
    <use
       xlink:href="#p"
       x="40"
       y="176"
       id="use63" />
    <use
       xlink:href="#p"
       x="40"
       y="192"
       id="use65" />
    <use
       xlink:href="#p"
       x="40"
       y="208"
       id="use67" />
    <use
       xlink:href="#p"
       x="40"
       y="216"
       id="use69" />
    <use
       xlink:href="#p"
       x="40"
       y="240"
       id="use71" />
    <use
       xlink:href="#p"
       x="40"
       y="288"
       id="use73" />
    <use
       xlink:href="#p"
       x="48"
       y="32"
       id="use75" />
    <use
       xlink:href="#p"
       x="48"
       y="48"
       id="use77" />
    <use
       xlink:href="#p"
       x="48"
       y="56"
       id="use79" />
    <use
       xlink:href="#p"
       x="48"
       y="64"
       id="use81" />
    <use
       xlink:href="#p"
       x="48"
       y="80"
       id="use83" />
    <use
       xlink:href="#p"
       x="48"
       y="104"
       id="use85" />
    <use
       xlink:href="#p"
       x="48"
       y="112"
       id="use87" />
    <use
       xlink:href="#p"
       x="48"
       y="128"
       id="use89" />
    <use
       xlink:href="#p"
       x="48"
       y="136"
       id="use91" />
    <use
       xlink:href="#p"
       x="48"
       y="144"
       id="use93" />
    <use
       xlink:href="#p"
       x="48"
       y="152"
       id="use95" />
    <use
       xlink:href="#p"
       x="48"
       y="192"
       id="use97" />
    <use
       xlink:href="#p"
       x="48"
       y="200"
       id="use99" />
    <use
       xlink:href="#p"
       x="48"
       y="208"
       id="use101" />
    <use
       xlink:href="#p"
       x="48"
       y="240"
       id="use103" />
    <use
       xlink:href="#p"
       x="48"
       y="256"
       id="use105" />
    <use
       xlink:href="#p"
       x="48"
       y="264"
       id="use107" />
    <use
       xlink:href="#p"
       x="48"
       y="272"
       id="use109" />
    <use
       xlink:href="#p"
       x="48"
       y="288"
       id="use111" />
    <use
       xlink:href="#p"
       x="56"
       y="32"
       id="use113" />
    <use
       xlink:href="#p"
       x="56"
       y="48"
       id="use115" />
    <use
       xlink:href="#p"
       x="56"
       y="56"
       id="use117" />
    <use
       xlink:href="#p"
       x="56"
       y="64"
       id="use119" />
    <use
       xlink:href="#p"
       x="56"
       y="80"
       id="use121" />
    <use
       xlink:href="#p"
       x="56"
       y="96"
       id="use123" />
    <use
       xlink:href="#p"
       x="56"
       y="104"
       id="use125" />
    <use
       xlink:href="#p"
       x="56"
       y="120"
       id="use127" />
    <use
       xlink:href="#p"
       x="56"
       y="176"
       id="use129" />
    <use
       xlink:href="#p"
       x="56"
       y="184"
       id="use131" />
    <use
       xlink:href="#p"
       x="56"
       y="192"
       id="use133" />
    <use
       xlink:href="#p"
       x="56"
       y="200"
       id="use135" />
    <use
       xlink:href="#p"
       x="56"
       y="216"
       id="use137" />
    <use
       xlink:href="#p"
       x="56"
       y="240"
       id="use139" />
    <use
       xlink:href="#p"
       x="56"
       y="256"
       id="use141" />
    <use
       xlink:href="#p"
       x="56"
       y="264"
       id="use143" />
    <use
       xlink:href="#p"
       x="56"
       y="272"
       id="use145" />
    <use
       xlink:href="#p"
       x="56"
       y="288"
       id="use147" />
    <use
       xlink:href="#p"
       x="64"
       y="32"
       id="use149" />
    <use
       xlink:href="#p"
       x="64"
       y="48"
       id="use151" />
    <use
       xlink:href="#p"
       x="64"
       y="56"
       id="use153" />
    <use
       xlink:href="#p"
       x="64"
       y="64"
       id="use155" />
    <use
       xlink:href="#p"
       x="64"
       y="80"
       id="use157" />
    <use
       xlink:href="#p"
       x="64"
       y="96"
       id="use159" />
    <use
       xlink:href="#p"
       x="64"
       y="128"
       id="use161" />
    <use
       xlink:href="#p"
       x="64"
       y="144"
       id="use163" />
    <use
       xlink:href="#p"
       x="64"
       y="160"
       id="use165" />
    <use
       xlink:href="#p"
       x="64"
       y="192"
       id="use167" />
    <use
       xlink:href="#p"
       x="64"
       y="240"
       id="use169" />
    <use
       xlink:href="#p"
       x="64"
       y="256"
       id="use171" />
    <use
       xlink:href="#p"
       x="64"
       y="264"
       id="use173" />
    <use
       xlink:href="#p"
       x="64"
       y="272"
       id="use175" />
    <use
       xlink:href="#p"
       x="64"
       y="288"
       id="use177" />
    <use
       xlink:href="#p"
       x="72"
       y="32"
       id="use179" />
    <use
       xlink:href="#p"
       x="72"
       y="80"
       id="use181" />
    <use
       xlink:href="#p"
       x="72"
       y="120"
       id="use183" />
    <use
       xlink:href="#p"
       x="72"
       y="136"
       id="use185" />
    <use
       xlink:href="#p"
       x="72"
       y="168"
       id="use187" />
    <use
       xlink:href="#p"
       x="72"
       y="184"
       id="use189" />
    <use
       xlink:href="#p"
       x="72"
       y="192"
       id="use191" />
    <use
       xlink:href="#p"
       x="72"
       y="200"
       id="use193" />
    <use
       xlink:href="#p"
       x="72"
       y="208"
       id="use195" />
    <use
       xlink:href="#p"
       x="72"
       y="216"
       id="use197" />
    <use
       xlink:href="#p"
       x="72"
       y="240"
       id="use199" />
    <use
       xlink:href="#p"
       x="72"
       y="288"
       id="use201" />
    <use
       xlink:href="#p"
       x="80"
       y="32"
       id="use203" />
    <use
       xlink:href="#p"
       x="80"
       y="40"
       id="use205" />
    <use
       xlink:href="#p"
       x="80"
       y="48"
       id="use207" />
    <use
       xlink:href="#p"
       x="80"
       y="56"
       id="use209" />
    <use
       xlink:href="#p"
       x="80"
       y="64"
       id="use211" />
    <use
       xlink:href="#p"
       x="80"
       y="72"
       id="use213" />
    <use
       xlink:href="#p"
       x="80"
       y="80"
       id="use215" />
    <use
       xlink:href="#p"
       x="80"
       y="96"
       id="use217" />
    <use
       xlink:href="#p"
       x="80"
       y="112"
       id="use219" />
    <use
       xlink:href="#p"
       x="80"
       y="128"
       id="use221" />
    <use
       xlink:href="#p"
       x="80"
       y="144"
       id="use223" />
    <use
       xlink:href="#p"
       x="80"
       y="160"
       id="use225" />
    <use
       xlink:href="#p"
       x="80"
       y="176"
       id="use227" />
    <use
       xlink:href="#p"
       x="80"
       y="192"
       id="use229" />
    <use
       xlink:href="#p"
       x="80"
       y="208"
       id="use231" />
    <use
       xlink:href="#p"
       x="80"
       y="224"
       id="use233" />
    <use
       xlink:href="#p"
       x="80"
       y="240"
       id="use235" />
    <use
       xlink:href="#p"
       x="80"
       y="248"
       id="use237" />
    <use
       xlink:href="#p"
       x="80"
       y="256"
       id="use239" />
    <use
       xlink:href="#p"
       x="80"
       y="264"
       id="use241" />
    <use
       xlink:href="#p"
       x="80"
       y="272"
       id="use243" />
    <use
       xlink:href="#p"
       x="80"
       y="280"
       id="use245" />
    <use
       xlink:href="#p"
       x="80"
       y="288"
       id="use247" />
    <use
       xlink:href="#p"
       x="88"
       y="96"
       id="use249" />
    <use
       xlink:href="#p"
       x="88"
       y="104"
       id="use251" />
    <use
       xlink:href="#p"
       x="88"
       y="112"
       id="use253" />
    <use
       xlink:href="#p"
       x="88"
       y="136"
       id="use255" />
    <use
       xlink:href="#p"
       x="88"
       y="160"
       id="use257" />
    <use
       xlink:href="#p"
       x="88"
       y="168"
       id="use259" />
    <use
       xlink:href="#p"
       x="88"
       y="200"
       id="use261" />
    <use
       xlink:href="#p"
       x="88"
       y="208"
       id="use263" />
    <use
       xlink:href="#p"
       x="96"
       y="48"
       id="use265" />
    <use
       xlink:href="#p"
       x="96"
       y="56"
       id="use267" />
    <use
       xlink:href="#p"
       x="96"
       y="80"
       id="use269" />
    <use
       xlink:href="#p"
       x="96"
       y="104"
       id="use271" />
    <use
       xlink:href="#p"
       x="96"
       y="112"
       id="use273" />
    <use
       xlink:href="#p"
       x="96"
       y="128"
       id="use275" />
    <use
       xlink:href="#p"
       x="96"
       y="136"
       id="use277" />
    <use
       xlink:href="#p"
       x="96"
       y="144"
       id="use279" />
    <use
       xlink:href="#p"
       x="96"
       y="152"
       id="use281" />
    <use
       xlink:href="#p"
       x="96"
       y="160"
       id="use283" />
    <use
       xlink:href="#p"
       x="96"
       y="184"
       id="use285" />
    <use
       xlink:href="#p"
       x="96"
       y="216"
       id="use287" />
    <use
       xlink:href="#p"
       x="96"
       y="232"
       id="use289" />
    <use
       xlink:href="#p"
       x="96"
       y="240"
       id="use291" />
    <use
       xlink:href="#p"
       x="96"
       y="256"
       id="use293" />
    <use
       xlink:href="#p"
       x="96"
       y="264"
       id="use295" />
    <use
       xlink:href="#p"
       x="104"
       y="56"
       id="use297" />
    <use
       xlink:href="#p"
       x="104"
       y="64"
       id="use299" />
    <use
       xlink:href="#p"
       x="104"
       y="72"
       id="use301" />
    <use
       xlink:href="#p"
       x="104"
       y="112"
       id="use303" />
    <use
       xlink:href="#p"
       x="104"
       y="120"
       id="use305" />
    <use
       xlink:href="#p"
       x="104"
       y="128"
       id="use307" />
    <use
       xlink:href="#p"
       x="104"
       y="136"
       id="use309" />
    <use
       xlink:href="#p"
       x="104"
       y="144"
       id="use311" />
    <use
       xlink:href="#p"
       x="104"
       y="176"
       id="use313" />
    <use
       xlink:href="#p"
       x="104"
       y="184"
       id="use315" />
    <use
       xlink:href="#p"
       x="104"
       y="192"
       id="use317" />
    <use
       xlink:href="#p"
       x="104"
       y="208"
       id="use319" />
    <use
       xlink:href="#p"
       x="104"
       y="224"
       id="use321" />
    <use
       xlink:href="#p"
       x="104"
       y="256"
       id="use323" />
    <use
       xlink:href="#p"
       x="112"
       y="40"
       id="use325" />
    <use
       xlink:href="#p"
       x="112"
       y="48"
       id="use327" />
    <use
       xlink:href="#p"
       x="112"
       y="56"
       id="use329" />
    <use
       xlink:href="#p"
       x="112"
       y="72"
       id="use331" />
    <use
       xlink:href="#p"
       x="112"
       y="80"
       id="use333" />
    <use
       xlink:href="#p"
       x="112"
       y="96"
       id="use335" />
    <use
       xlink:href="#p"
       x="112"
       y="120"
       id="use337" />
    <use
       xlink:href="#p"
       x="112"
       y="128"
       id="use339" />
    <use
       xlink:href="#p"
       x="112"
       y="152"
       id="use341" />
    <use
       xlink:href="#p"
       x="112"
       y="160"
       id="use343" />
    <use
       xlink:href="#p"
       x="112"
       y="168"
       id="use345" />
    <use
       xlink:href="#p"
       x="112"
       y="216"
       id="use347" />
    <use
       xlink:href="#p"
       x="112"
       y="232"
       id="use349" />
    <use
       xlink:href="#p"
       x="112"
       y="240"
       id="use351" />
    <use
       xlink:href="#p"
       x="112"
       y="272"
       id="use353" />
    <use
       xlink:href="#p"
       x="112"
       y="280"
       id="use355" />
    <use
       xlink:href="#p"
       x="120"
       y="48"
       id="use357" />
    <use
       xlink:href="#p"
       x="120"
       y="88"
       id="use359" />
    <use
       xlink:href="#p"
       x="120"
       y="96"
       id="use361" />
    <use
       xlink:href="#p"
       x="120"
       y="112"
       id="use363" />
    <use
       xlink:href="#p"
       x="120"
       y="144"
       id="use365" />
    <use
       xlink:href="#p"
       x="120"
       y="152"
       id="use367" />
    <use
       xlink:href="#p"
       x="120"
       y="160"
       id="use369" />
    <use
       xlink:href="#p"
       x="120"
       y="168"
       id="use371" />
    <use
       xlink:href="#p"
       x="120"
       y="176"
       id="use373" />
    <use
       xlink:href="#p"
       x="120"
       y="192"
       id="use375" />
    <use
       xlink:href="#p"
       x="120"
       y="200"
       id="use377" />
    <use
       xlink:href="#p"
       x="120"
       y="216"
       id="use379" />
    <use
       xlink:href="#p"
       x="120"
       y="232"
       id="use381" />
    <use
       xlink:href="#p"
       x="120"
       y="248"
       id="use383" />
    <use
       xlink:href="#p"
       x="128"
       y="48"
       id="use385" />
    <use
       xlink:href="#p"
       x="128"
       y="56"
       id="use387" />
    <use
       xlink:href="#p"
       x="128"
       y="64"
       id="use389" />
    <use
       xlink:href="#p"
       x="128"
       y="80"
       id="use391" />
    <use
       xlink:href="#p"
       x="128"
       y="104"
       id="use393" />
    <use
       xlink:href="#p"
       x="128"
       y="136"
       id="use395" />
    <use
       xlink:href="#p"
       x="128"
       y="144"
       id="use397" />
    <use
       xlink:href="#p"
       x="128"
       y="152"
       id="use399" />
    <use
       xlink:href="#p"
       x="128"
       y="184"
       id="use401" />
    <use
       xlink:href="#p"
       x="128"
       y="192"
       id="use403" />
    <use
       xlink:href="#p"
       x="128"
       y="208"
       id="use405" />
    <use
       xlink:href="#p"
       x="128"
       y="232"
       id="use407" />
    <use
       xlink:href="#p"
       x="136"
       y="32"
       id="use409" />
    <use
       xlink:href="#p"
       x="136"
       y="56"
       id="use411" />
    <use
       xlink:href="#p"
       x="136"
       y="64"
       id="use413" />
    <use
       xlink:href="#p"
       x="136"
       y="72"
       id="use415" />
    <use
       xlink:href="#p"
       x="136"
       y="88"
       id="use417" />
    <use
       xlink:href="#p"
       x="136"
       y="104"
       id="use419" />
    <use
       xlink:href="#p"
       x="136"
       y="120"
       id="use421" />
    <use
       xlink:href="#p"
       x="136"
       y="176"
       id="use423" />
    <use
       xlink:href="#p"
       x="136"
       y="184"
       id="use425" />
    <use
       xlink:href="#p"
       x="136"
       y="200"
       id="use427" />
    <use
       xlink:href="#p"
       x="136"
       y="216"
       id="use429" />
    <use
       xlink:href="#p"
       x="136"
       y="224"
       id="use431" />
    <use
       xlink:href="#p"
       x="136"
       y="232"
       id="use433" />
    <use
       xlink:href="#p"
       x="136"
       y="240"
       id="use435" />
    <use
       xlink:href="#p"
       x="136"
       y="248"
       id="use437" />
    <use
       xlink:href="#p"
       x="136"
       y="264"
       id="use439" />
    <use
       xlink:href="#p"
       x="136"
       y="288"
       id="use441" />
    <use
       xlink:href="#p"
       x="144"
       y="32"
       id="use443" />
    <use
       xlink:href="#p"
       x="144"
       y="40"
       id="use445" />
    <use
       xlink:href="#p"
       x="144"
       y="48"
       id="use447" />
    <use
       xlink:href="#p"
       x="144"
       y="64"
       id="use449" />
    <use
       xlink:href="#p"
       x="144"
       y="80"
       id="use451" />
    <use
       xlink:href="#p"
       x="144"
       y="96"
       id="use453" />
    <use
       xlink:href="#p"
       x="144"
       y="128"
       id="use455" />
    <use
       xlink:href="#p"
       x="144"
       y="144"
       id="use457" />
    <use
       xlink:href="#p"
       x="144"
       y="200"
       id="use459" />
    <use
       xlink:href="#p"
       x="144"
       y="208"
       id="use461" />
    <use
       xlink:href="#p"
       x="144"
       y="216"
       id="use463" />
    <use
       xlink:href="#p"
       x="144"
       y="224"
       id="use465" />
    <use
       xlink:href="#p"
       x="144"
       y="248"
       id="use467" />
    <use
       xlink:href="#p"
       x="144"
       y="264"
       id="use469" />
    <use
       xlink:href="#p"
       x="144"
       y="288"
       id="use471" />
    <use
       xlink:href="#p"
       x="152"
       y="32"
       id="use473" />
    <use
       xlink:href="#p"
       x="152"
       y="56"
       id="use475" />
    <use
       xlink:href="#p"
       x="152"
       y="64"
       id="use477" />
    <use
       xlink:href="#p"
       x="152"
       y="72"
       id="use479" />
    <use
       xlink:href="#p"
       x="152"
       y="88"
       id="use481" />
    <use
       xlink:href="#p"
       x="152"
       y="96"
       id="use483" />
    <use
       xlink:href="#p"
       x="152"
       y="104"
       id="use485" />
    <use
       xlink:href="#p"
       x="152"
       y="112"
       id="use487" />
    <use
       xlink:href="#p"
       x="152"
       y="120"
       id="use489" />
    <use
       xlink:href="#p"
       x="152"
       y="136"
       id="use491" />
    <use
       xlink:href="#p"
       x="152"
       y="160"
       id="use493" />
    <use
       xlink:href="#p"
       x="152"
       y="200"
       id="use495" />
    <use
       xlink:href="#p"
       x="152"
       y="248"
       id="use497" />
    <use
       xlink:href="#p"
       x="152"
       y="256"
       id="use499" />
    <use
       xlink:href="#p"
       x="152"
       y="272"
       id="use501" />
    <use
       xlink:href="#p"
       x="152"
       y="288"
       id="use503" />
    <use
       xlink:href="#p"
       x="160"
       y="40"
       id="use505" />
    <use
       xlink:href="#p"
       x="160"
       y="48"
       id="use507" />
    <use
       xlink:href="#p"
       x="160"
       y="56"
       id="use509" />
    <use
       xlink:href="#p"
       x="160"
       y="72"
       id="use511" />
    <use
       xlink:href="#p"
       x="160"
       y="80"
       id="use513" />
    <use
       xlink:href="#p"
       x="160"
       y="88"
       id="use515" />
    <use
       xlink:href="#p"
       x="160"
       y="96"
       id="use517" />
    <use
       xlink:href="#p"
       x="160"
       y="128"
       id="use519" />
    <use
       xlink:href="#p"
       x="160"
       y="152"
       id="use521" />
    <use
       xlink:href="#p"
       x="160"
       y="168"
       id="use523" />
    <use
       xlink:href="#p"
       x="160"
       y="176"
       id="use525" />
    <use
       xlink:href="#p"
       x="160"
       y="184"
       id="use527" />
    <use
       xlink:href="#p"
       x="160"
       y="208"
       id="use529" />
    <use
       xlink:href="#p"
       x="160"
       y="216"
       id="use531" />
    <use
       xlink:href="#p"
       x="160"
       y="240"
       id="use533" />
    <use
       xlink:href="#p"
       x="160"
       y="264"
       id="use535" />
    <use
       xlink:href="#p"
       x="160"
       y="280"
       id="use537" />
    <use
       xlink:href="#p"
       x="160"
       y="288"
       id="use539" />
    <use
       xlink:href="#p"
       x="168"
       y="64"
       id="use541" />
    <use
       xlink:href="#p"
       x="168"
       y="88"
       id="use543" />
    <use
       xlink:href="#p"
       x="168"
       y="96"
       id="use545" />
    <use
       xlink:href="#p"
       x="168"
       y="104"
       id="use547" />
    <use
       xlink:href="#p"
       x="168"
       y="120"
       id="use549" />
    <use
       xlink:href="#p"
       x="168"
       y="128"
       id="use551" />
    <use
       xlink:href="#p"
       x="168"
       y="168"
       id="use553" />
    <use
       xlink:href="#p"
       x="168"
       y="176"
       id="use555" />
    <use
       xlink:href="#p"
       x="168"
       y="184"
       id="use557" />
    <use
       xlink:href="#p"
       x="168"
       y="192"
       id="use559" />
    <use
       xlink:href="#p"
       x="168"
       y="208"
       id="use561" />
    <use
       xlink:href="#p"
       x="168"
       y="216"
       id="use563" />
    <use
       xlink:href="#p"
       x="168"
       y="240"
       id="use565" />
    <use
       xlink:href="#p"
       x="168"
       y="264"
       id="use567" />
    <use
       xlink:href="#p"
       x="168"
       y="272"
       id="use569" />
    <use
       xlink:href="#p"
       x="168"
       y="280"
       id="use571" />
    <use
       xlink:href="#p"
       x="176"
       y="48"
       id="use573" />
    <use
       xlink:href="#p"
       x="176"
       y="72"
       id="use575" />
    <use
       xlink:href="#p"
       x="176"
       y="80"
       id="use577" />
    <use
       xlink:href="#p"
       x="176"
       y="120"
       id="use579" />
    <use
       xlink:href="#p"
       x="176"
       y="136"
       id="use581" />
    <use
       xlink:href="#p"
       x="176"
       y="192"
       id="use583" />
    <use
       xlink:href="#p"
       x="176"
       y="208"
       id="use585" />
    <use
       xlink:href="#p"
       x="176"
       y="224"
       id="use587" />
    <use
       xlink:href="#p"
       x="176"
       y="264"
       id="use589" />
    <use
       xlink:href="#p"
       x="184"
       y="48"
       id="use591" />
    <use
       xlink:href="#p"
       x="184"
       y="56"
       id="use593" />
    <use
       xlink:href="#p"
       x="184"
       y="112"
       id="use595" />
    <use
       xlink:href="#p"
       x="184"
       y="128"
       id="use597" />
    <use
       xlink:href="#p"
       x="184"
       y="168"
       id="use599" />
    <use
       xlink:href="#p"
       x="184"
       y="184"
       id="use601" />
    <use
       xlink:href="#p"
       x="184"
       y="248"
       id="use603" />
    <use
       xlink:href="#p"
       x="184"
       y="264"
       id="use605" />
    <use
       xlink:href="#p"
       x="184"
       y="280"
       id="use607" />
    <use
       xlink:href="#p"
       x="192"
       y="32"
       id="use609" />
    <use
       xlink:href="#p"
       x="192"
       y="64"
       id="use611" />
    <use
       xlink:href="#p"
       x="192"
       y="80"
       id="use613" />
    <use
       xlink:href="#p"
       x="192"
       y="88"
       id="use615" />
    <use
       xlink:href="#p"
       x="192"
       y="96"
       id="use617" />
    <use
       xlink:href="#p"
       x="192"
       y="104"
       id="use619" />
    <use
       xlink:href="#p"
       x="192"
       y="112"
       id="use621" />
    <use
       xlink:href="#p"
       x="192"
       y="120"
       id="use623" />
    <use
       xlink:href="#p"
       x="192"
       y="136"
       id="use625" />
    <use
       xlink:href="#p"
       x="192"
       y="144"
       id="use627" />
    <use
       xlink:href="#p"
       x="192"
       y="160"
       id="use629" />
    <use
       xlink:href="#p"
       x="192"
       y="184"
       id="use631" />
    <use
       xlink:href="#p"
       x="192"
       y="192"
       id="use633" />
    <use
       xlink:href="#p"
       x="192"
       y="200"
       id="use635" />
    <use
       xlink:href="#p"
       x="192"
       y="232"
       id="use637" />
    <use
       xlink:href="#p"
       x="192"
       y="240"
       id="use639" />
    <use
       xlink:href="#p"
       x="192"
       y="248"
       id="use641" />
    <use
       xlink:href="#p"
       x="192"
       y="256"
       id="use643" />
    <use
       xlink:href="#p"
       x="192"
       y="264"
       id="use645" />
    <use
       xlink:href="#p"
       x="192"
       y="272"
       id="use647" />
    <use
       xlink:href="#p"
       x="192"
       y="288"
       id="use649" />
    <use
       xlink:href="#p"
       x="200"
       y="40"
       id="use651" />
    <use
       xlink:href="#p"
       x="200"
       y="48"
       id="use653" />
    <use
       xlink:href="#p"
       x="200"
       y="64"
       id="use655" />
    <use
       xlink:href="#p"
       x="200"
       y="72"
       id="use657" />
    <use
       xlink:href="#p"
       x="200"
       y="104"
       id="use659" />
    <use
       xlink:href="#p"
       x="200"
       y="120"
       id="use661" />
    <use
       xlink:href="#p"
       x="200"
       y="128"
       id="use663" />
    <use
       xlink:href="#p"
       x="200"
       y="144"
       id="use665" />
    <use
       xlink:href="#p"
       x="200"
       y="200"
       id="use667" />
    <use
       xlink:href="#p"
       x="200"
       y="240"
       id="use669" />
    <use
       xlink:href="#p"
       x="200"
       y="256"
       id="use671" />
    <use
       xlink:href="#p"
       x="200"
       y="264"
       id="use673" />
    <use
       xlink:href="#p"
       x="200"
       y="272"
       id="use675" />
    <use
       xlink:href="#p"
       x="200"
       y="280"
       id="use677" />
    <use
       xlink:href="#p"
       x="208"
       y="72"
       id="use679" />
    <use
       xlink:href="#p"
       x="208"
       y="80"
       id="use681" />
    <use
       xlink:href="#p"
       x="208"
       y="96"
       id="use683" />
    <use
       xlink:href="#p"
       x="208"
       y="112"
       id="use685" />
    <use
       xlink:href="#p"
       x="208"
       y="120"
       id="use687" />
    <use
       xlink:href="#p"
       x="208"
       y="144"
       id="use689" />
    <use
       xlink:href="#p"
       x="208"
       y="176"
       id="use691" />
    <use
       xlink:href="#p"
       x="208"
       y="200"
       id="use693" />
    <use
       xlink:href="#p"
       x="208"
       y="224"
       id="use695" />
    <use
       xlink:href="#p"
       x="208"
       y="232"
       id="use697" />
    <use
       xlink:href="#p"
       x="208"
       y="240"
       id="use699" />
    <use
       xlink:href="#p"
       x="208"
       y="280"
       id="use701" />
    <use
       xlink:href="#p"
       x="208"
       y="288"
       id="use703" />
    <use
       xlink:href="#p"
       x="216"
       y="48"
       id="use705" />
    <use
       xlink:href="#p"
       x="216"
       y="64"
       id="use707" />
    <use
       xlink:href="#p"
       x="216"
       y="72"
       id="use709" />
    <use
       xlink:href="#p"
       x="216"
       y="104"
       id="use711" />
    <use
       xlink:href="#p"
       x="216"
       y="112"
       id="use713" />
    <use
       xlink:href="#p"
       x="216"
       y="120"
       id="use715" />
    <use
       xlink:href="#p"
       x="216"
       y="128"
       id="use717" />
    <use
       xlink:href="#p"
       x="216"
       y="136"
       id="use719" />
    <use
       xlink:href="#p"
       x="216"
       y="160"
       id="use721" />
    <use
       xlink:href="#p"
       x="216"
       y="176"
       id="use723" />
    <use
       xlink:href="#p"
       x="216"
       y="232"
       id="use725" />
    <use
       xlink:href="#p"
       x="216"
       y="240"
       id="use727" />
    <use
       xlink:href="#p"
       x="216"
       y="248"
       id="use729" />
    <use
       xlink:href="#p"
       x="216"
       y="256"
       id="use731" />
    <use
       xlink:href="#p"
       x="216"
       y="264"
       id="use733" />
    <use
       xlink:href="#p"
       x="216"
       y="280"
       id="use735" />
    <use
       xlink:href="#p"
       x="224"
       y="32"
       id="use737" />
    <use
       xlink:href="#p"
       x="224"
       y="40"
       id="use739" />
    <use
       xlink:href="#p"
       x="224"
       y="48"
       id="use741" />
    <use
       xlink:href="#p"
       x="224"
       y="64"
       id="use743" />
    <use
       xlink:href="#p"
       x="224"
       y="80"
       id="use745" />
    <use
       xlink:href="#p"
       x="224"
       y="88"
       id="use747" />
    <use
       xlink:href="#p"
       x="224"
       y="96"
       id="use749" />
    <use
       xlink:href="#p"
       x="224"
       y="136"
       id="use751" />
    <use
       xlink:href="#p"
       x="224"
       y="144"
       id="use753" />
    <use
       xlink:href="#p"
       x="224"
       y="152"
       id="use755" />
    <use
       xlink:href="#p"
       x="224"
       y="168"
       id="use757" />
    <use
       xlink:href="#p"
       x="224"
       y="176"
       id="use759" />
    <use
       xlink:href="#p"
       x="224"
       y="184"
       id="use761" />
    <use
       xlink:href="#p"
       x="224"
       y="192"
       id="use763" />
    <use
       xlink:href="#p"
       x="224"
       y="208"
       id="use765" />
    <use
       xlink:href="#p"
       x="224"
       y="224"
       id="use767" />
    <use
       xlink:href="#p"
       x="224"
       y="232"
       id="use769" />
    <use
       xlink:href="#p"
       x="224"
       y="240"
       id="use771" />
    <use
       xlink:href="#p"
       x="224"
       y="248"
       id="use773" />
    <use
       xlink:href="#p"
       x="224"
       y="256"
       id="use775" />
    <use
       xlink:href="#p"
       x="224"
       y="264"
       id="use777" />
    <use
       xlink:href="#p"
       x="224"
       y="288"
       id="use779" />
    <use
       xlink:href="#p"
       x="232"
       y="104"
       id="use781" />
    <use
       xlink:href="#p"
       x="232"
       y="120"
       id="use783" />
    <use
       xlink:href="#p"
       x="232"
       y="128"
       id="use785" />
    <use
       xlink:href="#p"
       x="232"
       y="144"
       id="use787" />
    <use
       xlink:href="#p"
       x="232"
       y="152"
       id="use789" />
    <use
       xlink:href="#p"
       x="232"
       y="160"
       id="use791" />
    <use
       xlink:href="#p"
       x="232"
       y="176"
       id="use793" />
    <use
       xlink:href="#p"
       x="232"
       y="192"
       id="use795" />
    <use
       xlink:href="#p"
       x="232"
       y="200"
       id="use797" />
    <use
       xlink:href="#p"
       x="232"
       y="216"
       id="use799" />
    <use
       xlink:href="#p"
       x="232"
       y="224"
       id="use801" />
    <use
       xlink:href="#p"
       x="232"
       y="256"
       id="use803" />
    <use
       xlink:href="#p"
       x="232"
       y="280"
       id="use805" />
    <use
       xlink:href="#p"
       x="240"
       y="32"
       id="use807" />
    <use
       xlink:href="#p"
       x="240"
       y="40"
       id="use809" />
    <use
       xlink:href="#p"
       x="240"
       y="48"
       id="use811" />
    <use
       xlink:href="#p"
       x="240"
       y="56"
       id="use813" />
    <use
       xlink:href="#p"
       x="240"
       y="64"
       id="use815" />
    <use
       xlink:href="#p"
       x="240"
       y="72"
       id="use817" />
    <use
       xlink:href="#p"
       x="240"
       y="80"
       id="use819" />
    <use
       xlink:href="#p"
       x="240"
       y="120"
       id="use821" />
    <use
       xlink:href="#p"
       x="240"
       y="128"
       id="use823" />
    <use
       xlink:href="#p"
       x="240"
       y="160"
       id="use825" />
    <use
       xlink:href="#p"
       x="240"
       y="168"
       id="use827" />
    <use
       xlink:href="#p"
       x="240"
       y="176"
       id="use829" />
    <use
       xlink:href="#p"
       x="240"
       y="184"
       id="use831" />
    <use
       xlink:href="#p"
       x="240"
       y="200"
       id="use833" />
    <use
       xlink:href="#p"
       x="240"
       y="208"
       id="use835" />
    <use
       xlink:href="#p"
       x="240"
       y="216"
       id="use837" />
    <use
       xlink:href="#p"
       x="240"
       y="224"
       id="use839" />
    <use
       xlink:href="#p"
       x="240"
       y="240"
       id="use841" />
    <use
       xlink:href="#p"
       x="240"
       y="256"
       id="use843" />
    <use
       xlink:href="#p"
       x="240"
       y="280"
       id="use845" />
    <use
       xlink:href="#p"
       x="240"
       y="288"
       id="use847" />
    <use
       xlink:href="#p"
       x="248"
       y="32"
       id="use849" />
    <use
       xlink:href="#p"
       x="248"
       y="80"
       id="use851" />
    <use
       xlink:href="#p"
       x="248"
       y="120"
       id="use853" />
    <use
       xlink:href="#p"
       x="248"
       y="128"
       id="use855" />
    <use
       xlink:href="#p"
       x="248"
       y="136"
       id="use857" />
    <use
       xlink:href="#p"
       x="248"
       y="144"
       id="use859" />
    <use
       xlink:href="#p"
       x="248"
       y="152"
       id="use861" />
    <use
       xlink:href="#p"
       x="248"
       y="160"
       id="use863" />
    <use
       xlink:href="#p"
       x="248"
       y="168"
       id="use865" />
    <use
       xlink:href="#p"
       x="248"
       y="176"
       id="use867" />
    <use
       xlink:href="#p"
       x="248"
       y="224"
       id="use869" />
    <use
       xlink:href="#p"
       x="248"
       y="256"
       id="use871" />
    <use
       xlink:href="#p"
       x="248"
       y="264"
       id="use873" />
    <use
       xlink:href="#p"
       x="248"
       y="272"
       id="use875" />
    <use
       xlink:href="#p"
       x="248"
       y="288"
       id="use877" />
    <use
       xlink:href="#p"
       x="256"
       y="32"
       id="use879" />
    <use
       xlink:href="#p"
       x="256"
       y="48"
       id="use881" />
    <use
       xlink:href="#p"
       x="256"
       y="56"
       id="use883" />
    <use
       xlink:href="#p"
       x="256"
       y="64"
       id="use885" />
    <use
       xlink:href="#p"
       x="256"
       y="80"
       id="use887" />
    <use
       xlink:href="#p"
       x="256"
       y="104"
       id="use889" />
    <use
       xlink:href="#p"
       x="256"
       y="112"
       id="use891" />
    <use
       xlink:href="#p"
       x="256"
       y="120"
       id="use893" />
    <use
       xlink:href="#p"
       x="256"
       y="128"
       id="use895" />
    <use
       xlink:href="#p"
       x="256"
       y="136"
       id="use897" />
    <use
       xlink:href="#p"
       x="256"
       y="160"
       id="use899" />
    <use
       xlink:href="#p"
       x="256"
       y="168"
       id="use901" />
    <use
       xlink:href="#p"
       x="256"
       y="176"
       id="use903" />
    <use
       xlink:href="#p"
       x="256"
       y="200"
       id="use905" />
    <use
       xlink:href="#p"
       x="256"
       y="216"
       id="use907" />
    <use
       xlink:href="#p"
       x="256"
       y="224"
       id="use909" />
    <use
       xlink:href="#p"
       x="256"
       y="232"
       id="use911" />
    <use
       xlink:href="#p"
       x="256"
       y="240"
       id="use913" />
    <use
       xlink:href="#p"
       x="256"
       y="248"
       id="use915" />
    <use
       xlink:href="#p"
       x="256"
       y="256"
       id="use917" />
    <use
       xlink:href="#p"
       x="256"
       y="272"
       id="use919" />
    <use
       xlink:href="#p"
       x="256"
       y="288"
       id="use921" />
    <use
       xlink:href="#p"
       x="264"
       y="32"
       id="use923" />
    <use
       xlink:href="#p"
       x="264"
       y="48"
       id="use925" />
    <use
       xlink:href="#p"
       x="264"
       y="56"
       id="use927" />
    <use
       xlink:href="#p"
       x="264"
       y="64"
       id="use929" />
    <use
       xlink:href="#p"
       x="264"
       y="80"
       id="use931" />
    <use
       xlink:href="#p"
       x="264"
       y="96"
       id="use933" />
    <use
       xlink:href="#p"
       x="264"
       y="104"
       id="use935" />
    <use
       xlink:href="#p"
       x="264"
       y="136"
       id="use937" />
    <use
       xlink:href="#p"
       x="264"
       y="152"
       id="use939" />
    <use
       xlink:href="#p"
       x="264"
       y="160"
       id="use941" />
    <use
       xlink:href="#p"
       x="264"
       y="168"
       id="use943" />
    <use
       xlink:href="#p"
       x="264"
       y="192"
       id="use945" />
    <use
       xlink:href="#p"
       x="264"
       y="200"
       id="use947" />
    <use
       xlink:href="#p"
       x="264"
       y="216"
       id="use949" />
    <use
       xlink:href="#p"
       x="264"
       y="256"
       id="use951" />
    <use
       xlink:href="#p"
       x="264"
       y="264"
       id="use953" />
    <use
       xlink:href="#p"
       x="264"
       y="288"
       id="use955" />
    <use
       xlink:href="#p"
       x="272"
       y="32"
       id="use957" />
    <use
       xlink:href="#p"
       x="272"
       y="48"
       id="use959" />
    <use
       xlink:href="#p"
       x="272"
       y="56"
       id="use961" />
    <use
       xlink:href="#p"
       x="272"
       y="64"
       id="use963" />
    <use
       xlink:href="#p"
       x="272"
       y="80"
       id="use965" />
    <use
       xlink:href="#p"
       x="272"
       y="96"
       id="use967" />
    <use
       xlink:href="#p"
       x="272"
       y="104"
       id="use969" />
    <use
       xlink:href="#p"
       x="272"
       y="112"
       id="use971" />
    <use
       xlink:href="#p"
       x="272"
       y="120"
       id="use973" />
    <use
       xlink:href="#p"
       x="272"
       y="160"
       id="use975" />
    <use
       xlink:href="#p"
       x="272"
       y="168"
       id="use977" />
    <use
       xlink:href="#p"
       x="272"
       y="184"
       id="use979" />
    <use
       xlink:href="#p"
       x="272"
       y="200"
       id="use981" />
    <use
       xlink:href="#p"
       x="272"
       y="208"
       id="use983" />
    <use
       xlink:href="#p"
       x="272"
       y="216"
       id="use985" />
    <use
       xlink:href="#p"
       x="272"
       y="232"
       id="use987" />
    <use
       xlink:href="#p"
       x="272"
       y="248"
       id="use989" />
    <use
       xlink:href="#p"
       x="272"
       y="264"
       id="use991" />
    <use
       xlink:href="#p"
       x="272"
       y="272"
       id="use993" />
    <use
       xlink:href="#p"
       x="272"
       y="280"
       id="use995" />
    <use
       xlink:href="#p"
       x="272"
       y="288"
       id="use997" />
    <use
       xlink:href="#p"
       x="280"
       y="32"
       id="use999" />
    <use
       xlink:href="#p"
       x="280"
       y="80"
       id="use1001" />
    <use
       xlink:href="#p"
       x="280"
       y="104"
       id="use1003" />
    <use
       xlink:href="#p"
       x="280"
       y="120"
       id="use1005" />
    <use
       xlink:href="#p"
       x="280"
       y="136"
       id="use1007" />
    <use
       xlink:href="#p"
       x="280"
       y="176"
       id="use1009" />
    <use
       xlink:href="#p"
       x="280"
       y="208"
       id="use1011" />
    <use
       xlink:href="#p"
       x="280"
       y="216"
       id="use1013" />
    <use
       xlink:href="#p"
       x="280"
       y="240"
       id="use1015" />
    <use
       xlink:href="#p"
       x="280"
       y="264"
       id="use1017" />
    <use
       xlink:href="#p"
       x="280"
       y="272"
       id="use1019" />
    <use
       xlink:href="#p"
       x="280"
       y="280"
       id="use1021" />
    <use
       xlink:href="#p"
       x="288"
       y="32"
       id="use1023" />
    <use
       xlink:href="#p"
       x="288"
       y="40"
       id="use1025" />
    <use
       xlink:href="#p"
       x="288"
       y="48"
       id="use1027" />
    <use
       xlink:href="#p"
       x="288"
       y="56"
       id="use1029" />
    <use
       xlink:href="#p"
       x="288"
       y="64"
       id="use1031" />
    <use
       xlink:href="#p"
       x="288"
       y="72"
       id="use1033" />
    <use
       xlink:href="#p"
       x="288"
       y="80"
       id="use1035" />
    <use
       xlink:href="#p"
       x="288"
       y="112"
       id="use1037" />
    <use
       xlink:href="#p"
       x="288"
       y="128"
       id="use1039" />
    <use
       xlink:href="#p"
       x="288"
       y="136"
       id="use1041" />
    <use
       xlink:href="#p"
       x="288"
       y="176"
       id="use1043" />
    <use
       xlink:href="#p"
       x="288"
       y="208"
       id="use1045" />
    <use
       xlink:href="#p"
       x="288"
       y="224"
       id="use1047" />
    <use
       xlink:href="#p"
       x="288"
       y="248"
       id="use1049" />
    <use
       xlink:href="#p"
       x="288"
       y="272"
       id="use1051" />
    <use
       xlink:href="#p"
       x="288"
       y="280"
       id="use1053" />
  </g>
  <g
     id="g1057" />
  <rect
     style="opacity:1;fill:#ffffff;fill-opacity:1;stroke:none;stroke-width:12.88478088;stroke-linecap:round;stroke-linejoin:round;stroke-miterlimit:4;stroke-dasharray:none;stroke-dashoffset:0;stroke-opacity:1"
     id="rect1892"
     width="121.02312"
     height="105.16749"
     x="103.68103"
     y="111.30173" />
  <g
     id="g1890"
     transform="matrix(0.64552385,0,0,0.64552385,-1.9864703,0.31954075)">
    <path
       d="m 171.70763,218.6134 v 31.5242 h 13.51037 13.51036 v -4.50345 -4.50346 h 4.50346 4.50346 v -9.00692 -9.00691 h -4.50346 -4.50346 v -4.50346 -4.50346 h 4.50346 4.50346 v -9.00691 -9.00691 h -4.50346 -4.50346 v -4.50346 -4.50345 H 185.218 171.70763 Z m 27.02073,-13.51037 v 9.00691 h -9.00691 -9.00691 v -9.00691 -9.00691 h 9.00691 9.00691 z m 0,27.02074 v 9.00692 h -9.00691 -9.00691 v -9.00692 -9.00691 h 9.00691 9.00691 z"
       id="path24"
       inkscape:connector-curvature="0"
       style="fill:#000000;stroke:none;stroke-width:0.11258642" />
    <path
       d="m 216.74219,218.6134 v 31.5242 h 18.01383 18.01383 v -4.50345 -4.50346 h -13.51037 -13.51037 v -9.00692 -9.00691 h 13.51037 13.51037 v -4.50346 -4.50346 h -13.51037 -13.51037 v -9.00691 -9.00691 h 13.51037 13.51037 v -4.50346 -4.50345 h -18.01383 -18.01383 z"
       id="path26"
       inkscape:connector-curvature="0"
       style="fill:#000000;stroke:none;stroke-width:0.11258642" />
    <path
       d="m 261.77676,218.6134 v 31.5242 h 18.01382 18.01383 v -4.50345 -4.50346 h -13.51037 -13.51037 v -9.00692 -9.00691 h 13.51037 13.51037 v -4.50346 -4.50346 h -13.51037 -13.51037 v -9.00691 -9.00691 h 13.51037 13.51037 v -4.50346 -4.50345 h -18.01383 -18.01382 z"
       id="path28"
       inkscape:connector-curvature="0"
       style="fill:#000000;stroke:none;stroke-width:0.11258642" />
    <path
       d="m 306.81132,218.6134 v 31.5242 h 4.50346 4.50346 v -13.51036 -13.51038 h 9.00692 9.00691 v 13.51038 13.51036 h 4.50346 4.50346 v -13.51036 -13.51038 h -4.50346 -4.50346 v -4.50346 -4.50346 h 4.50346 4.50346 v -9.00691 -9.00691 h -4.50346 -4.50346 v -4.50346 -4.50345 H 320.3217 306.81132 Z m 27.02075,-13.51037 v 9.00691 h -9.00691 -9.00692 v -9.00691 -9.00691 h 9.00692 9.00691 z"
       id="path30"
       inkscape:connector-curvature="0"
       style="fill:#000000;stroke:none;stroke-width:0.11258642" />
    <path
       d="m 180.71454,263.64797 v 4.50346 h -4.50346 -4.50345 v 22.51728 22.51728 h 4.50345 4.50346 v 4.50346 4.50345 h 9.00691 9.00691 v -4.50345 -4.50346 h 4.50346 4.50346 v -4.50346 -4.50345 h -4.50346 -4.50346 v 4.50345 4.50346 h -9.00691 -9.00691 v -22.51728 -22.51728 h 9.00691 9.00691 v 4.50345 4.50346 h 4.50346 4.50346 v -4.50346 -4.50345 h -4.50346 -4.50346 v -4.50346 -4.50345 h -9.00691 -9.00691 z"
       id="path32"
       inkscape:connector-curvature="0"
       style="fill:#000000;stroke:none;stroke-width:0.11258642" />
    <path
       d="m 216.74219,290.66871 v 31.52419 h 18.01383 18.01383 v -4.50345 -4.50346 h -13.51037 -13.51037 v -27.02074 -27.02073 h -4.50346 -4.50346 z"
       id="path34"
       inkscape:connector-curvature="0"
       style="fill:#000000;stroke:none;stroke-width:0.11258642" />
    <path
       d="m 261.77676,286.16525 v 27.02074 h 4.50346 4.50345 v 4.50346 4.50345 h 9.00691 9.00692 v -4.50345 -4.50346 h 4.50345 4.50346 v -27.02074 -27.02073 h -4.50346 -4.50345 v 27.02073 27.02074 h -9.00692 -9.00691 v -27.02074 -27.02073 h -4.50345 -4.50346 z"
       id="path36"
       inkscape:connector-curvature="0"
       style="fill:#000000;stroke:none;stroke-width:0.11258642" />
    <path
       d="m 306.81132,290.66871 v 31.52419 h 13.51038 13.51037 v -4.50345 -4.50346 h 4.50346 4.50346 v -9.00691 -9.00691 h -4.50346 -4.50346 v -4.50346 -4.50346 h 4.50346 4.50346 v -9.00691 -9.00691 h -4.50346 -4.50346 v -4.50346 -4.50345 H 320.3217 306.81132 Z m 27.02075,-13.51037 v 9.00691 h -9.00691 -9.00692 v -9.00691 -9.00691 h 9.00692 9.00691 z m 0,27.02074 v 9.00691 h -9.00691 -9.00692 v -9.00691 -9.00691 h 9.00692 9.00691 z"
       id="path38"
       inkscape:connector-curvature="0"
       style="fill:#000000;stroke:none;stroke-width:0.11258642" />
  </g>
</svg>
