<?xml version="1.0" encoding="UTF-8" standalone="no"?>
<svg
   xmlns:dc="http://purl.org/dc/elements/1.1/"
   xmlns:cc="http://creativecommons.org/ns#"
   xmlns:rdf="http://www.w3.org/1999/02/22-rdf-syntax-ns#"
   xmlns:svg="http://www.w3.org/2000/svg"
   xmlns="http://www.w3.org/2000/svg"
   xmlns:sodipodi="http://sodipodi.sourceforge.net/DTD/sodipodi-0.dtd"
   xmlns:inkscape="http://www.inkscape.org/namespaces/inkscape"
   version="1.0"
   width="516.000000pt"
   height="516.000000pt"
   viewBox="0 0 516.000000 516.000000"
   preserveAspectRatio="xMidYMid meet"
   id="svg52"
   sodipodi:docname="beer_club_logo.svg"
   inkscape:version="0.92.3 (2405546, 2018-03-11)">
  <metadata
     id="metadata58">
    <rdf:RDF>
      <cc:Work
         rdf:about="">
        <dc:format>image/svg+xml</dc:format>
        <dc:type
           rdf:resource="http://purl.org/dc/dcmitype/StillImage" />
        <dc:title></dc:title>
      </cc:Work>
    </rdf:RDF>
  </metadata>
  <defs
     id="defs56" />
  <sodipodi:namedview
     pagecolor="#ffffff"
     bordercolor="#666666"
     borderopacity="1"
     objecttolerance="10"
     gridtolerance="10"
     guidetolerance="10"
     inkscape:pageopacity="0"
     inkscape:pageshadow="2"
     inkscape:window-width="3440"
     inkscape:window-height="1387"
     id="namedview54"
     showgrid="false"
     inkscape:zoom="1.372093"
     inkscape:cx="-218.78904"
     inkscape:cy="377.20376"
     inkscape:window-x="1912"
     inkscape:window-y="-8"
     inkscape:window-maximized="1"
     inkscape:current-layer="svg52" />
  <path
     style="fill:#000000;stroke:none;stroke-width:0.11258642"
     inkscape:connector-curvature="0"
     id="path24"
     d="m 171.70763,218.6134 v 31.5242 h 13.51037 13.51036 v -4.50345 -4.50346 h 4.50346 4.50346 v -9.00692 -9.00691 h -4.50346 -4.50346 v -4.50346 -4.50346 h 4.50346 4.50346 v -9.00691 -9.00691 h -4.50346 -4.50346 v -4.50346 -4.50345 H 185.218 171.70763 Z m 27.02073,-13.51037 v 9.00691 h -9.00691 -9.00691 v -9.00691 -9.00691 h 9.00691 9.00691 z m 0,27.02074 v 9.00692 h -9.00691 -9.00691 v -9.00692 -9.00691 h 9.00691 9.00691 z" />
  <path
     style="fill:#000000;stroke:none;stroke-width:0.11258642"
     inkscape:connector-curvature="0"
     id="path26"
     d="m 216.74219,218.6134 v 31.5242 h 18.01383 18.01383 v -4.50345 -4.50346 h -13.51037 -13.51037 v -9.00692 -9.00691 h 13.51037 13.51037 v -4.50346 -4.50346 h -13.51037 -13.51037 v -9.00691 -9.00691 h 13.51037 13.51037 v -4.50346 -4.50345 h -18.01383 -18.01383 z" />
  <path
     style="fill:#000000;stroke:none;stroke-width:0.11258642"
     inkscape:connector-curvature="0"
     id="path28"
     d="m 261.77676,218.6134 v 31.5242 h 18.01382 18.01383 v -4.50345 -4.50346 h -13.51037 -13.51037 v -9.00692 -9.00691 h 13.51037 13.51037 v -4.50346 -4.50346 h -13.51037 -13.51037 v -9.00691 -9.00691 h 13.51037 13.51037 v -4.50346 -4.50345 h -18.01383 -18.01382 z" />
  <path
     style="fill:#000000;stroke:none;stroke-width:0.11258642"
     inkscape:connector-curvature="0"
     id="path30"
     d="m 306.81132,218.6134 v 31.5242 h 4.50346 4.50346 v -13.51036 -13.51038 h 9.00692 9.00691 v 13.51038 13.51036 h 4.50346 4.50346 v -13.51036 -13.51038 h -4.50346 -4.50346 v -4.50346 -4.50346 h 4.50346 4.50346 v -9.00691 -9.00691 h -4.50346 -4.50346 v -4.50346 -4.50345 H 320.3217 306.81132 Z m 27.02075,-13.51037 v 9.00691 h -9.00691 -9.00692 v -9.00691 -9.00691 h 9.00692 9.00691 z" />
  <path
     style="fill:#000000;stroke:none;stroke-width:0.11258642"
     inkscape:connector-curvature="0"
     id="path32"
     d="m 180.71454,263.64797 v 4.50346 h -4.50346 -4.50345 v 22.51728 22.51728 h 4.50345 4.50346 v 4.50346 4.50345 h 9.00691 9.00691 v -4.50345 -4.50346 h 4.50346 4.50346 v -4.50346 -4.50345 h -4.50346 -4.50346 v 4.50345 4.50346 h -9.00691 -9.00691 v -22.51728 -22.51728 h 9.00691 9.00691 v 4.50345 4.50346 h 4.50346 4.50346 v -4.50346 -4.50345 h -4.50346 -4.50346 v -4.50346 -4.50345 h -9.00691 -9.00691 z" />
  <path
     style="fill:#000000;stroke:none;stroke-width:0.11258642"
     inkscape:connector-curvature="0"
     id="path34"
     d="m 216.74219,290.66871 v 31.52419 h 18.01383 18.01383 v -4.50345 -4.50346 h -13.51037 -13.51037 v -27.02074 -27.02073 h -4.50346 -4.50346 z" />
  <path
     style="fill:#000000;stroke:none;stroke-width:0.11258642"
     inkscape:connector-curvature="0"
     id="path36"
     d="m 261.77676,286.16525 v 27.02074 h 4.50346 4.50345 v 4.50346 4.50345 h 9.00691 9.00692 v -4.50345 -4.50346 h 4.50345 4.50346 v -27.02074 -27.02073 h -4.50346 -4.50345 v 27.02073 27.02074 h -9.00692 -9.00691 v -27.02074 -27.02073 h -4.50345 -4.50346 z" />
  <path
     style="fill:#000000;stroke:none;stroke-width:0.11258642"
     inkscape:connector-curvature="0"
     id="path38"
     d="m 306.81132,290.66871 v 31.52419 h 13.51038 13.51037 v -4.50345 -4.50346 h 4.50346 4.50346 v -9.00691 -9.00691 h -4.50346 -4.50346 v -4.50346 -4.50346 h 4.50346 4.50346 v -9.00691 -9.00691 h -4.50346 -4.50346 v -4.50346 -4.50345 H 320.3217 306.81132 Z m 27.02075,-13.51037 v 9.00691 h -9.00691 -9.00692 v -9.00691 -9.00691 h 9.00692 9.00691 z m 0,27.02074 v 9.00691 h -9.00691 -9.00692 v -9.00691 -9.00691 h 9.00692 9.00691 z" />
</svg>
